<?xml version="1.0" encoding="utf-8"?>
<!-- Generator: Adobe Illustrator 28.1.0, SVG Export Plug-In . SVG Version: 6.00 Build 0)  -->
<svg version="1.1" id="Layer_1" xmlns="http://www.w3.org/2000/svg" xmlns:xlink="http://www.w3.org/1999/xlink" x="0px" y="0px"
	 viewBox="0 0 650 533" style="enable-background:new 0 0 650 533;" xml:space="preserve">
<style type="text/css">
	.st0{fill:none;stroke:#EBEBEB;stroke-width:0.53;stroke-linejoin:round;stroke-miterlimit:10;}
	.st1{fill:none;stroke:#EBEBEB;stroke-width:1.07;stroke-linejoin:round;stroke-miterlimit:10;}
	.st2{fill:none;stroke:#D51D29;stroke-width:1.07;stroke-linejoin:round;stroke-miterlimit:10;}
	.st3{font-family:'Helvetica';}
	.st4{font-size:12px;}
</style>
<line class="st0" x1="78.1" y1="426.3" x2="566.6" y2="426.3"/>
<line class="st0" x1="78.1" y1="314.7" x2="566.6" y2="314.7"/>
<line class="st0" x1="78.1" y1="203" x2="566.6" y2="203"/>
<line class="st0" x1="78.1" y1="91.3" x2="566.6" y2="91.3"/>
<line class="st0" x1="132" y1="504.5" x2="132" y2="13.2"/>
<line class="st0" x1="195.4" y1="504.5" x2="195.4" y2="13.2"/>
<line class="st0" x1="258.9" y1="504.5" x2="258.9" y2="13.2"/>
<line class="st0" x1="322.3" y1="504.5" x2="322.3" y2="13.2"/>
<line class="st0" x1="385.8" y1="504.5" x2="385.8" y2="13.2"/>
<line class="st0" x1="449.2" y1="504.5" x2="449.2" y2="13.2"/>
<line class="st0" x1="512.7" y1="504.5" x2="512.7" y2="13.2"/>
<line class="st1" x1="78.1" y1="482.2" x2="566.6" y2="482.2"/>
<line class="st1" x1="78.1" y1="370.5" x2="566.6" y2="370.5"/>
<line class="st1" x1="78.1" y1="258.8" x2="566.6" y2="258.8"/>
<line class="st1" x1="78.1" y1="147.2" x2="566.6" y2="147.2"/>
<line class="st1" x1="78.1" y1="35.5" x2="566.6" y2="35.5"/>
<line class="st1" x1="100.3" y1="504.5" x2="100.3" y2="13.2"/>
<line class="st1" x1="163.7" y1="504.5" x2="163.7" y2="13.2"/>
<line class="st1" x1="227.2" y1="504.5" x2="227.2" y2="13.2"/>
<line class="st1" x1="290.6" y1="504.5" x2="290.6" y2="13.2"/>
<line class="st1" x1="354.1" y1="504.5" x2="354.1" y2="13.2"/>
<line class="st1" x1="417.5" y1="504.5" x2="417.5" y2="13.2"/>
<line class="st1" x1="481" y1="504.5" x2="481" y2="13.2"/>
<line class="st1" x1="544.4" y1="504.5" x2="544.4" y2="13.2"/>
<polyline class="st2" points="100.3,474.8 116.1,352.5 132,286.6 147.9,250.3 163.7,293.6 179.6,234.9 195.4,280.2 211.3,207.4 
	227.2,249.5 243,212.2 258.9,304.1 274.8,297.9 290.6,333.2 306.5,250.9 322.3,252.4 338.2,238 354.1,186.9 369.9,192.8 
	385.8,183.4 401.6,135.9 417.5,156.7 433.4,89.6 449.2,109.8 465.1,110.1 481,205.3 496.8,211.2 512.7,222 528.5,267.7 544.4,169.5 
	"/>
<text transform="matrix(1 0 0 1 56.0435 38.8604)" class="st3 st4">8.0</text>
<text transform="matrix(1 0 0 1 56.4272 150.3474)" class="st3 st4">7.5</text>
<text transform="matrix(1 0 0 1 56.4272 263.5002)" class="st3 st4">7.0</text>
<text transform="matrix(1 0 0 1 56.4272 375.1614)" class="st3 st4">6.5</text>
<text transform="matrix(1 0 0 1 56.4272 487.82)" class="st3 st4">6.0</text>
<text transform="matrix(1 0 0 1 85.7616 519.0441)" class="st3 st4">1996</text>
<text transform="matrix(1 0 0 1 148.8138 519.0436)" class="st3 st4">2000</text>
<text transform="matrix(1 0 0 1 212.6593 519.2717)" class="st3 st4">2004</text>
<text transform="matrix(1 0 0 1 277.1889 519.499)" class="st3 st4">2008</text>
<text transform="matrix(1 0 0 1 339.7582 519.7271)" class="st3 st4">2012</text>
<text transform="matrix(1 0 0 1 405.5475 519.0439)" class="st3 st4">2016</text>
<text transform="matrix(1 0 0 1 468.6136 519.0444)" class="st3 st4">2020</text>
<text transform="matrix(1 0 0 1 531.3291 519.0444)" class="st3 st4">2024</text>
</svg>
