<?xml version="1.0" encoding="utf-8"?>
<!-- Generator: Adobe Illustrator 28.1.0, SVG Export Plug-In . SVG Version: 6.00 Build 0)  -->
<svg version="1.1" id="Layer_1" xmlns="http://www.w3.org/2000/svg" xmlns:xlink="http://www.w3.org/1999/xlink" x="0px" y="0px"
	 viewBox="0 0 650 1089.5" style="enable-background:new 0 0 650 1089.5;" xml:space="preserve">
<style type="text/css">
	.st0{fill:none;}
	.st1{fill:none;stroke:#EBEBEB;stroke-width:0.53;stroke-linejoin:round;stroke-miterlimit:10;}
	.st2{fill:none;stroke:#EBEBEB;stroke-width:1.07;stroke-linejoin:round;stroke-miterlimit:10;}
	.st3{fill:#D51D29;}
	.st4{font-family:'Helvetica';}
	.st5{font-size:13.5159px;}
</style>
<rect x="32.8" y="244.5" class="st0" width="600.5" height="600.5"/>
<rect x="32.8" y="244.5" class="st0" width="600.5" height="600.5"/>
<rect x="57.8" y="249.1" class="st0" width="570.9" height="580.3"/>
<line class="st1" x1="57.8" y1="734.1" x2="628.7" y2="734.1"/>
<line class="st1" x1="57.8" y1="596.2" x2="628.7" y2="596.2"/>
<line class="st1" x1="57.8" y1="458.4" x2="628.7" y2="458.4"/>
<line class="st1" x1="57.8" y1="320.5" x2="628.7" y2="320.5"/>
<line class="st1" x1="166.3" y1="829.4" x2="166.3" y2="249.1"/>
<line class="st1" x1="284.2" y1="829.4" x2="284.2" y2="249.1"/>
<line class="st1" x1="402.2" y1="829.4" x2="402.2" y2="249.1"/>
<line class="st1" x1="520.1" y1="829.4" x2="520.1" y2="249.1"/>
<line class="st2" x1="57.8" y1="803" x2="628.7" y2="803"/>
<line class="st2" x1="57.8" y1="665.2" x2="628.7" y2="665.2"/>
<line class="st2" x1="57.8" y1="527.3" x2="628.7" y2="527.3"/>
<line class="st2" x1="57.8" y1="389.5" x2="628.7" y2="389.5"/>
<line class="st2" x1="57.8" y1="251.6" x2="628.7" y2="251.6"/>
<line class="st2" x1="107.3" y1="829.4" x2="107.3" y2="249.1"/>
<line class="st2" x1="225.3" y1="829.4" x2="225.3" y2="249.1"/>
<line class="st2" x1="343.2" y1="829.4" x2="343.2" y2="249.1"/>
<line class="st2" x1="461.2" y1="829.4" x2="461.2" y2="249.1"/>
<line class="st2" x1="579.1" y1="829.4" x2="579.1" y2="249.1"/>
<rect x="83.7" y="802.9" class="st3" width="47.2" height="0.1"/>
<rect x="130.9" y="796.5" class="st3" width="47.2" height="6.5"/>
<rect x="178.1" y="773.2" class="st3" width="47.2" height="29.8"/>
<rect x="225.3" y="749.3" class="st3" width="47.2" height="53.8"/>
<rect x="272.5" y="701" class="st3" width="47.2" height="102"/>
<rect x="319.6" y="640.1" class="st3" width="47.2" height="162.9"/>
<rect x="366.8" y="557.2" class="st3" width="47.2" height="245.8"/>
<rect x="414" y="391.9" class="st3" width="47.2" height="411.1"/>
<rect x="461.2" y="275.4" class="st3" width="47.2" height="527.6"/>
<rect x="508.4" y="516.3" class="st3" width="47.2" height="286.7"/>
<rect x="555.5" y="782.9" class="st3" width="47.2" height="20.1"/>
<rect x="32.8" y="244.5" class="st0" width="600.5" height="600.5"/>
<text transform="matrix(1.1456 0 0 1 19.2739 257.564)" class="st4 st5">4000</text>
<text transform="matrix(1.1456 0 0 1 19.4595 393.6875)" class="st4 st5">3000</text>
<text transform="matrix(1.1456 0 0 1 19.6611 529.7461)" class="st4 st5">2000</text>
<text transform="matrix(1.1456 0 0 1 19.6611 669.9033)" class="st4 st5">1000</text>
<text transform="matrix(1.1456 0 0 1 45.8691 803.2822)" class="st4 st5">0</text>
<text transform="matrix(1.1456 0 0 1 96.0308 844.9658)" class="st4 st5">0.0</text>
<text transform="matrix(1.1456 0 0 1 215.521 845.2227)" class="st4 st5">2.5</text>
<text transform="matrix(1.1456 0 0 1 333 844.9658)" class="st4 st5">5.0</text>
<text transform="matrix(1.1456 0 0 1 450.8472 844.9658)" class="st4 st5">7.5</text>
<text transform="matrix(1.1456 0 0 1 564.9561 845.4648)" class="st4 st5">10.0</text>
</svg>
