<?xml version="1.0" encoding="utf-8"?>
<!-- Generator: Adobe Illustrator 28.1.0, SVG Export Plug-In . SVG Version: 6.00 Build 0)  -->
<svg version="1.1" xmlns="http://www.w3.org/2000/svg" xmlns:xlink="http://www.w3.org/1999/xlink" x="0px" y="0px"
	 viewBox="0 0 650 650" style="enable-background:new 0 0 650 650;" xml:space="preserve">
<style type="text/css">
	.st0{fill:none;stroke:#EBEBEB;stroke-width:0.53;stroke-linejoin:round;stroke-miterlimit:10;}
	.st1{fill:none;stroke:#EBEBEB;stroke-width:1.07;stroke-linejoin:round;stroke-miterlimit:10;}
	.st2{fill:#D51D29;}
	.st3{font-family:'Helvetica';}
	.st4{font-size:13.9394px;}
	.st5{fill:none;}
</style>
<g id="Layer_1">
	<line class="st0" x1="54" y1="519.6" x2="639.5" y2="519.6"/>
	<line class="st0" x1="54" y1="377.4" x2="639.5" y2="377.4"/>
	<line class="st0" x1="54" y1="235.2" x2="639.5" y2="235.2"/>
	<line class="st0" x1="54" y1="93.1" x2="639.5" y2="93.1"/>
	<line class="st0" x1="165.3" y1="617.9" x2="165.3" y2="19.5"/>
	<line class="st0" x1="286.2" y1="617.9" x2="286.2" y2="19.5"/>
	<line class="st0" x1="407.2" y1="617.9" x2="407.2" y2="19.5"/>
	<line class="st0" x1="528.1" y1="617.9" x2="528.1" y2="19.5"/>
	<line class="st1" x1="54" y1="590.6" x2="639.5" y2="590.6"/>
	<line class="st1" x1="54" y1="448.6" x2="639.5" y2="448.6"/>
	<line class="st1" x1="54" y1="306.3" x2="639.5" y2="306.3"/>
	<line class="st1" x1="54" y1="164.3" x2="639.5" y2="164.3"/>
	<line class="st1" x1="54" y1="22.1" x2="639.5" y2="22.1"/>
	<line class="st1" x1="104.8" y1="617.9" x2="104.8" y2="19.5"/>
	<line class="st1" x1="225.8" y1="617.9" x2="225.8" y2="19.5"/>
	<line class="st1" x1="346.7" y1="617.9" x2="346.7" y2="19.5"/>
	<line class="st1" x1="467.7" y1="617.9" x2="467.7" y2="19.5"/>
	<line class="st1" x1="588.6" y1="617.9" x2="588.6" y2="19.5"/>
	<rect x="80.6" y="590.6" class="st2" width="48.4" height="0.1"/>
	<rect x="129" y="584" class="st2" width="48.4" height="6.7"/>
	<rect x="177.4" y="560" class="st2" width="48.4" height="30.7"/>
	<rect x="225.8" y="535.2" class="st2" width="48.4" height="55.5"/>
	<rect x="274.2" y="485.4" class="st2" width="48.4" height="105.2"/>
	<rect x="322.5" y="422.6" class="st2" width="48.4" height="168"/>
	<rect x="370.9" y="337.2" class="st2" width="48.4" height="253.5"/>
	<rect x="419.3" y="166.6" class="st2" width="48.4" height="424"/>
	<rect x="467.7" y="46.5" class="st2" width="48.4" height="544.1"/>
	<rect x="516.1" y="294.9" class="st2" width="48.4" height="295.7"/>
	<rect x="564.4" y="570" class="st2" width="48.4" height="20.7"/>
	<text transform="matrix(1.1392 0 0 1 14.5 28.1353)" class="st3 st4">4000</text>
	<text transform="matrix(1.1392 0 0 1 14.6899 168.5249)" class="st3 st4">3000</text>
	<text transform="matrix(1.1392 0 0 1 14.897 308.8467)" class="st3 st4">2000</text>
	<text transform="matrix(1.1392 0 0 1 14.897 453.3984)" class="st3 st4">1000</text>
	<text transform="matrix(1.1392 0 0 1 41.7754 590.9551)" class="st3 st4">0</text>
	<text transform="matrix(1.1392 0 0 1 93.2207 633.9453)" class="st3 st4">0.0</text>
	<text transform="matrix(1.1392 0 0 1 215.7651 634.2109)" class="st3 st4">2.5</text>
	<text transform="matrix(1.1392 0 0 1 336.25 633.9453)" class="st3 st4">5.0</text>
	<text transform="matrix(1.1392 0 0 1 457.1113 633.9453)" class="st3 st4">7.5</text>
	<text transform="matrix(1.1392 0 0 1 574.1377 634.4609)" class="st3 st4">10.0</text>
	<rect x="-625" y="-175" class="st5" width="400" height="456"/>
	<text transform="matrix(1 0 0 1 -625 -164.3501)" style="font-family:'ArialMT'; font-size:15px;">ai2html-settings</text>
	<text transform="matrix(1 0 0 1 -625 -145.3501)" style="font-family:'ArialMT'; font-size:15px;">settings_version: 0.120.0</text>
	<text transform="matrix(1 0 0 1 -625 -126.3501)" style="font-family:'ArialMT'; font-size:15px;">image_format: auto</text>
	<text transform="matrix(1 0 0 1 -625 -107.3501)" style="font-family:'ArialMT'; font-size:15px;">responsiveness: fixed</text>
	<text transform="matrix(1 0 0 1 -625 -88.3501)" style="font-family:'ArialMT'; font-size:15px;">include_resizer_script: false</text>
	<text transform="matrix(1 0 0 1 -625 -69.3501)" style="font-family:'ArialMT'; font-size:15px;">use_lazy_loader: false</text>
	<text transform="matrix(1 0 0 1 -625 -50.3501)" style="font-family:'ArialMT'; font-size:15px;">output: one-file</text>
	<text transform="matrix(1 0 0 1 -625 -31.3501)" style="font-family:'ArialMT'; font-size:15px;">html_output_path: ai2html-output/</text>
	<text transform="matrix(1 0 0 1 -625 -12.3501)" style="font-family:'ArialMT'; font-size:15px;">image_output_path: ai2html-output/</text>
	<text transform="matrix(1 0 0 1 -625 6.6499)" style="font-family:'ArialMT'; font-size:15px;">image_source_path: </text>
	<text transform="matrix(1 0 0 1 -625 25.6499)" style="font-family:'ArialMT'; font-size:15px;">local_preview_template: </text>
	<text transform="matrix(1 0 0 1 -625 44.6499)" style="font-family:'ArialMT'; font-size:15px;">png_number_of_colors: 128</text>
	<text transform="matrix(1 0 0 1 -625 63.6499)" style="font-family:'ArialMT'; font-size:15px;">jpg_quality: 60</text>
	<text transform="matrix(1 0 0 1 -625 82.6499)" style="font-family:'ArialMT'; font-size:15px;">headline: </text>
	<text transform="matrix(1 0 0 1 -625 101.6499)" style="font-family:'ArialMT'; font-size:15px;">leadin: </text>
	<text transform="matrix(1 0 0 1 -625 120.6499)" style="font-family:'ArialMT'; font-size:15px;">notes: </text>
	<text transform="matrix(1 0 0 1 -625 139.6499)" style="font-family:'ArialMT'; font-size:15px;">sources: </text>
	<text transform="matrix(1 0 0 1 -625 158.6499)" style="font-family:'ArialMT'; font-size:15px;">credit: </text>
</g>
<g id="ai2html-settings_00000023271866304385717480000004084434995614112671_">
	<rect x="-450" class="st5" width="400" height="456"/>
	<text id="ai2html-settings_00000034087161411800296420000012390378575202831768_" transform="matrix(1 0 0 1 -450 10.6499)"><tspan x="0" y="0" style="font-family:'MyriadPro-Regular'; font-size:15px;">ai2html-settings</tspan><tspan x="0" y="19" style="font-family:'MyriadPro-Regular'; font-size:15px;">settings_version: 0.120.0</tspan><tspan x="0" y="38" style="font-family:'MyriadPro-Regular'; font-size:15px;">image_format: auto</tspan><tspan x="0" y="57" style="font-family:'MyriadPro-Regular'; font-size:15px;">responsiveness: fixed</tspan><tspan x="0" y="76" style="font-family:'MyriadPro-Regular'; font-size:15px;">include_resizer_script: false</tspan><tspan x="0" y="95" style="font-family:'MyriadPro-Regular'; font-size:15px;">use_lazy_loader: false</tspan><tspan x="0" y="114" style="font-family:'MyriadPro-Regular'; font-size:15px;">output: one-file</tspan><tspan x="0" y="133" style="font-family:'MyriadPro-Regular'; font-size:15px;">html_output_path: ai2html-output/</tspan><tspan x="0" y="152" style="font-family:'MyriadPro-Regular'; font-size:15px;">image_output_path: ai2html-output/</tspan><tspan x="0" y="171" style="font-family:'MyriadPro-Regular'; font-size:15px;">image_source_path: </tspan><tspan x="0" y="190" style="font-family:'MyriadPro-Regular'; font-size:15px;">local_preview_template: </tspan><tspan x="0" y="209" style="font-family:'MyriadPro-Regular'; font-size:15px;">png_number_of_colors: 128</tspan><tspan x="0" y="228" style="font-family:'MyriadPro-Regular'; font-size:15px;">jpg_quality: 60</tspan><tspan x="0" y="247" style="font-family:'MyriadPro-Regular'; font-size:15px;">headline: </tspan><tspan x="0" y="266" style="font-family:'MyriadPro-Regular'; font-size:15px;">leadin: </tspan><tspan x="0" y="285" style="font-family:'MyriadPro-Regular'; font-size:15px;">notes: </tspan><tspan x="0" y="304" style="font-family:'MyriadPro-Regular'; font-size:15px;">sources: </tspan><tspan x="0" y="323" style="font-family:'MyriadPro-Regular'; font-size:15px;">credit: </tspan></text>
</g>
</svg>
