<?xml version="1.0" encoding="utf-8"?>
<!-- Generator: Adobe Illustrator 28.1.0, SVG Export Plug-In . SVG Version: 6.00 Build 0)  -->
<svg version="1.1" id="Layer_1" xmlns="http://www.w3.org/2000/svg" xmlns:xlink="http://www.w3.org/1999/xlink" x="0px" y="0px"
	 viewBox="0 0 650 735" style="enable-background:new 0 0 650 735;" xml:space="preserve">
<style type="text/css">
	.st0{fill:none;stroke:#EBEBEB;stroke-width:0.53;stroke-linejoin:round;stroke-miterlimit:10;}
	.st1{fill:none;stroke:#EBEBEB;stroke-width:1.07;stroke-linejoin:round;stroke-miterlimit:10;}
	.st2{fill:#FFCF72;}
	.st3{font-family:'Helvetica';}
	.st4{font-size:12px;}
</style>
<line class="st0" x1="72.1" y1="536.5" x2="596.7" y2="536.5"/>
<line class="st0" x1="72.1" y1="399.1" x2="596.7" y2="399.1"/>
<line class="st0" x1="72.1" y1="261.8" x2="596.7" y2="261.8"/>
<line class="st0" x1="72.1" y1="124.4" x2="596.7" y2="124.4"/>
<line class="st0" x1="121.1" y1="629.4" x2="121.1" y2="96.2"/>
<line class="st0" x1="246.5" y1="629.4" x2="246.5" y2="96.2"/>
<line class="st0" x1="372" y1="629.4" x2="372" y2="96.2"/>
<line class="st0" x1="497.5" y1="629.4" x2="497.5" y2="96.2"/>
<line class="st1" x1="72.1" y1="605.2" x2="596.7" y2="605.2"/>
<line class="st1" x1="72.1" y1="467.8" x2="596.7" y2="467.8"/>
<line class="st1" x1="72.1" y1="330.5" x2="596.7" y2="330.5"/>
<line class="st1" x1="72.1" y1="193.1" x2="596.7" y2="193.1"/>
<line class="st1" x1="183.8" y1="629.4" x2="183.8" y2="96.2"/>
<line class="st1" x1="309.3" y1="629.4" x2="309.3" y2="96.2"/>
<line class="st1" x1="434.8" y1="629.4" x2="434.8" y2="96.2"/>
<line class="st1" x1="560.3" y1="629.4" x2="560.3" y2="96.2"/>
<rect x="96" y="605" class="st2" width="25.1" height="0.1"/>
<rect x="121.1" y="604.5" class="st2" width="25.1" height="0.7"/>
<rect x="146.2" y="603.9" class="st2" width="25.1" height="1.2"/>
<rect x="171.3" y="599.1" class="st2" width="25.1" height="6"/>
<rect x="196.4" y="595.6" class="st2" width="25.1" height="9.6"/>
<rect x="221.5" y="585.4" class="st2" width="25.1" height="19.8"/>
<rect x="246.5" y="570.6" class="st2" width="25.1" height="34.6"/>
<rect x="271.7" y="544.3" class="st2" width="25.1" height="60.8"/>
<rect x="296.7" y="512" class="st2" width="25.1" height="93.1"/>
<rect x="321.8" y="455.5" class="st2" width="25.1" height="149.7"/>
<rect x="346.9" y="372.6" class="st2" width="25.1" height="232.5"/>
<rect x="372" y="290.1" class="st2" width="25.1" height="315.1"/>
<rect x="397.1" y="162.2" class="st2" width="25.1" height="443"/>
<rect x="422.2" y="120.4" class="st2" width="25.1" height="484.7"/>
<rect x="447.3" y="143.5" class="st2" width="25.1" height="461.7"/>
<rect x="472.4" y="332.5" class="st2" width="25.1" height="272.7"/>
<rect x="497.5" y="494.2" class="st2" width="25.1" height="111"/>
<rect x="522.6" y="579.1" class="st2" width="25.1" height="26.1"/>
<rect x="547.7" y="604.5" class="st2" width="25.1" height="0.7"/>
<text transform="matrix(1 0 0 1 38.3616 193.102)" class="st3 st4">3000</text>
<text transform="matrix(1 0 0 1 38.6496 332.5178)" class="st3 st4">2000</text>
<text transform="matrix(1 0 0 1 38.6493 468.8448)" class="st3 st4">1000</text>
<text transform="matrix(1 0 0 1 59.9547 603.9392)" class="st3 st4">0</text>
<text transform="matrix(1 0 0 1 180.2362 644.6753)" class="st3 st4">25</text>
<text transform="matrix(1 0 0 1 302.2993 644.6749)" class="st3 st4">50</text>
<text transform="matrix(1 0 0 1 428.1189 644.675)" class="st3 st4">75</text>
<text transform="matrix(1 0 0 1 551.3591 644.9031)" class="st3 st4">100</text>
</svg>
