<?xml version="1.0" encoding="utf-8"?>
<!-- Generator: Adobe Illustrator 28.1.0, SVG Export Plug-In . SVG Version: 6.00 Build 0)  -->
<svg version="1.1" id="Layer_1" xmlns="http://www.w3.org/2000/svg" xmlns:xlink="http://www.w3.org/1999/xlink" x="0px" y="0px"
	 viewBox="0 0 650 565" style="enable-background:new 0 0 650 565;" xml:space="preserve">
<style type="text/css">
	.st0{fill:none;stroke:#EBEBEB;stroke-width:0.53;stroke-linejoin:round;stroke-miterlimit:10;}
	.st1{fill:none;stroke:#EBEBEB;stroke-width:1.07;stroke-linejoin:round;stroke-miterlimit:10;}
	.st2{fill:none;stroke:#0000FF;stroke-width:1.07;stroke-linejoin:round;stroke-miterlimit:10;}
	.st3{font-family:'Helvetica';}
	.st4{font-size:12px;}
</style>
<line class="st0" x1="88" y1="432.3" x2="566.2" y2="432.3"/>
<line class="st0" x1="88" y1="287" x2="566.2" y2="287"/>
<line class="st0" x1="88" y1="141.8" x2="566.2" y2="141.8"/>
<line class="st0" x1="93.6" y1="526.7" x2="93.6" y2="47.4"/>
<line class="st0" x1="158" y1="526.7" x2="158" y2="47.4"/>
<line class="st0" x1="222.4" y1="526.7" x2="222.4" y2="47.4"/>
<line class="st0" x1="286.8" y1="526.7" x2="286.8" y2="47.4"/>
<line class="st0" x1="351.2" y1="526.7" x2="351.2" y2="47.4"/>
<line class="st0" x1="415.7" y1="526.7" x2="415.7" y2="47.4"/>
<line class="st0" x1="480.1" y1="526.7" x2="480.1" y2="47.4"/>
<line class="st0" x1="544.5" y1="526.7" x2="544.5" y2="47.4"/>
<line class="st1" x1="88" y1="504.9" x2="566.2" y2="504.9"/>
<line class="st1" x1="88" y1="359.7" x2="566.2" y2="359.7"/>
<line class="st1" x1="88" y1="214.4" x2="566.2" y2="214.4"/>
<line class="st1" x1="88" y1="69.2" x2="566.2" y2="69.2"/>
<line class="st1" x1="125.8" y1="526.7" x2="125.8" y2="47.4"/>
<line class="st1" x1="190.2" y1="526.7" x2="190.2" y2="47.4"/>
<line class="st1" x1="254.6" y1="526.7" x2="254.6" y2="47.4"/>
<line class="st1" x1="319" y1="526.7" x2="319" y2="47.4"/>
<line class="st1" x1="383.4" y1="526.7" x2="383.4" y2="47.4"/>
<line class="st1" x1="447.9" y1="526.7" x2="447.9" y2="47.4"/>
<line class="st1" x1="512.3" y1="526.7" x2="512.3" y2="47.4"/>
<polyline class="st2" points="109.7,127.3 125.8,134.9 141.9,140.3 158,178.6 174.1,163.6 190.2,330.1 206.3,339.6 222.4,362.6 
	238.5,354.7 254.6,362.4 270.7,360.2 286.8,399.7 302.9,408.4 319,399.2 335.1,377.3 351.2,360.9 367.3,368.7 383.4,356 
	399.5,354.3 415.7,345.8 431.8,336.4 447.9,339.2 464,326.1 480.1,328.9 496.2,319.1 512.3,326.6 528.4,310.3 544.5,289.8 "/>
<text transform="matrix(1 0 0 1 70.5153 73.2389)" class="st3 st4">90</text>
<text transform="matrix(1 0 0 1 70.9471 217.6881)" class="st3 st4">80</text>
<text transform="matrix(1 0 0 1 71.3307 362.847)" class="st3 st4">70</text>
<text transform="matrix(1 0 0 1 70.9471 507.8612)" class="st3 st4">60</text>
<text transform="matrix(1 0 0 1 112.2204 539.3757)" class="st3 st4">1996</text>
<text transform="matrix(1 0 0 1 175.4062 539.6034)" class="st3 st4">2000</text>
<text transform="matrix(1 0 0 1 241.6799 539.3762)" class="st3 st4">2004</text>
<text transform="matrix(1 0 0 1 305.1801 539.8307)" class="st3 st4">2008</text>
<text transform="matrix(1 0 0 1 369.3078 539.603)" class="st3 st4">2012</text>
<text transform="matrix(1 0 0 1 433.1449 540.058)" class="st3 st4">2016</text>
<text transform="matrix(1 0 0 1 498.9548 540.2854)" class="st3 st4">2022</text>
</svg>
