<?xml version="1.0" encoding="utf-8"?>
<!-- Generator: Adobe Illustrator 28.1.0, SVG Export Plug-In . SVG Version: 6.00 Build 0)  -->
<svg version="1.1" id="Layer_1" xmlns="http://www.w3.org/2000/svg" xmlns:xlink="http://www.w3.org/1999/xlink" x="0px" y="0px"
	 viewBox="0 0 650 534" style="enable-background:new 0 0 650 534;" xml:space="preserve">
<style type="text/css">
	.st0{fill:none;stroke:#EBEBEB;stroke-width:0.53;stroke-linejoin:round;stroke-miterlimit:10;}
	.st1{fill:none;stroke:#EBEBEB;stroke-width:1.07;stroke-linejoin:round;stroke-miterlimit:10;}
	.st2{fill:#FFCF8A;}
	.st3{font-family:'Helvetica';}
	.st4{font-size:12px;}
</style>
<line class="st0" x1="107.7" y1="412" x2="566" y2="412"/>
<line class="st0" x1="107.7" y1="273.4" x2="566" y2="273.4"/>
<line class="st0" x1="107.7" y1="134.8" x2="566" y2="134.8"/>
<line class="st0" x1="194.9" y1="502.5" x2="194.9" y2="36.7"/>
<line class="st0" x1="289.5" y1="502.5" x2="289.5" y2="36.7"/>
<line class="st0" x1="384.2" y1="502.5" x2="384.2" y2="36.7"/>
<line class="st0" x1="478.9" y1="502.5" x2="478.9" y2="36.7"/>
<line class="st1" x1="107.7" y1="481.4" x2="566" y2="481.4"/>
<line class="st1" x1="107.7" y1="342.7" x2="566" y2="342.7"/>
<line class="st1" x1="107.7" y1="204.1" x2="566" y2="204.1"/>
<line class="st1" x1="107.7" y1="65.5" x2="566" y2="65.5"/>
<line class="st1" x1="147.5" y1="502.5" x2="147.5" y2="36.7"/>
<line class="st1" x1="242.2" y1="502.5" x2="242.2" y2="36.7"/>
<line class="st1" x1="336.9" y1="502.5" x2="336.9" y2="36.7"/>
<line class="st1" x1="431.6" y1="502.5" x2="431.6" y2="36.7"/>
<line class="st1" x1="526.3" y1="502.5" x2="526.3" y2="36.7"/>
<rect x="128.6" y="481.1" class="st2" width="37.9" height="0.2"/>
<rect x="166.5" y="478.1" class="st2" width="37.9" height="3.3"/>
<rect x="204.3" y="471.4" class="st2" width="37.9" height="9.9"/>
<rect x="242.2" y="460.2" class="st2" width="37.9" height="21.1"/>
<rect x="280.1" y="435.3" class="st2" width="37.9" height="46.1"/>
<rect x="318" y="385.5" class="st2" width="37.9" height="95.9"/>
<rect x="355.8" y="277.2" class="st2" width="37.9" height="204.1"/>
<rect x="393.7" y="93.5" class="st2" width="37.9" height="387.9"/>
<rect x="431.6" y="57.8" class="st2" width="37.9" height="423.5"/>
<rect x="469.4" y="398.5" class="st2" width="37.9" height="82.9"/>
<rect x="507.3" y="480.7" class="st2" width="37.9" height="0.6"/>
<text transform="matrix(1 0 0 1 74.5816 69.5059)" class="st3 st4">6000</text>
<text transform="matrix(1 0 0 1 75.0374 208.1843)" class="st3 st4">4000</text>
<text transform="matrix(1 0 0 1 75.0376 346.9409)" class="st3 st4">2000</text>
<text transform="matrix(1 0 0 1 98.2239 485.4607)" class="st3 st4">0</text>
<text transform="matrix(1 0 0 1 138.7538 515.2801)" class="st3 st4">0.0</text>
<text transform="matrix(1 0 0 1 234.683 515.5079)" class="st3 st4">2.5</text>
<text transform="matrix(1 0 0 1 329.9789 515.2799)" class="st3 st4">5.0</text>
<text transform="matrix(1 0 0 1 423.9066 515.2804)" class="st3 st4">7.5</text>
<text transform="matrix(1 0 0 1 512.8127 515.9518)" class="st3 st4">10.0</text>
</svg>
