<?xml version="1.0" encoding="utf-8"?>
<!-- Generator: Adobe Illustrator 28.1.0, SVG Export Plug-In . SVG Version: 6.00 Build 0)  -->
<svg version="1.1" xmlns="http://www.w3.org/2000/svg" xmlns:xlink="http://www.w3.org/1999/xlink" x="0px" y="0px"
	 viewBox="0 0 650 650" style="enable-background:new 0 0 650 650;" xml:space="preserve">
<style type="text/css">
	.st0{fill:none;stroke:#EBEBEB;stroke-width:0.53;stroke-linejoin:round;stroke-miterlimit:10;}
	.st1{fill:none;stroke:#EBEBEB;stroke-width:1.07;stroke-linejoin:round;stroke-miterlimit:10;}
	.st2{fill:#FFCF8A;}
	.st3{font-family:'Helvetica';}
	.st4{font-size:15.4625px;}
	.st5{fill:none;}
</style>
<g id="Layer_1">
	<g id="Layer_1_00000140706302368419041960000009219044079009129870_">
		<line class="st0" x1="55.1" y1="501.5" x2="638" y2="501.5"/>
		<line class="st0" x1="55.1" y1="322.9" x2="638" y2="322.9"/>
		<line class="st0" x1="55.1" y1="144.4" x2="638" y2="144.4"/>
		<line class="st0" x1="166" y1="618.1" x2="166" y2="17.9"/>
		<line class="st0" x1="286.3" y1="618.1" x2="286.3" y2="17.9"/>
		<line class="st0" x1="406.7" y1="618.1" x2="406.7" y2="17.9"/>
		<line class="st0" x1="527.2" y1="618.1" x2="527.2" y2="17.9"/>
		<line class="st1" x1="55.1" y1="591" x2="638" y2="591"/>
		<line class="st1" x1="55.1" y1="412.2" x2="638" y2="412.2"/>
		<line class="st1" x1="55.1" y1="233.6" x2="638" y2="233.6"/>
		<line class="st1" x1="55.1" y1="55" x2="638" y2="55"/>
		<line class="st1" x1="105.7" y1="618.1" x2="105.7" y2="17.9"/>
		<line class="st1" x1="226.2" y1="618.1" x2="226.2" y2="17.9"/>
		<line class="st1" x1="346.6" y1="618.1" x2="346.6" y2="17.9"/>
		<line class="st1" x1="467" y1="618.1" x2="467" y2="17.9"/>
		<line class="st1" x1="587.5" y1="618.1" x2="587.5" y2="17.9"/>
		<rect x="81.7" y="590.5" class="st2" width="48.2" height="0.3"/>
		<rect x="129.9" y="586.7" class="st2" width="48.2" height="4.3"/>
		<rect x="178" y="578" class="st2" width="48.2" height="12.7"/>
		<rect x="226.2" y="563.6" class="st2" width="48.2" height="27.2"/>
		<rect x="274.4" y="531.6" class="st2" width="48.2" height="59.4"/>
		<rect x="322.6" y="467.4" class="st2" width="48.2" height="123.6"/>
		<rect x="370.6" y="327.8" class="st2" width="48.2" height="263"/>
		<rect x="418.9" y="91.2" class="st2" width="48.2" height="499.8"/>
		<rect x="467" y="45.1" class="st2" width="48.2" height="545.7"/>
		<rect x="515.1" y="484.1" class="st2" width="48.2" height="106.8"/>
		<rect x="563.4" y="590" class="st2" width="48.2" height="0.8"/>
		<text transform="matrix(0.987 0 0 1 12.9956 60.2158)" class="st3 st4">6000</text>
		<text transform="matrix(0.987 0 0 1 13.5747 238.9082)" class="st3 st4">4000</text>
		<text transform="matrix(0.987 0 0 1 13.5757 417.7021)" class="st3 st4">2000</text>
		<text transform="matrix(0.987 0 0 1 43.0654 596.1895)" class="st3 st4">0</text>
		<text transform="matrix(0.987 0 0 1 94.6108 634.6143)" class="st3 st4">0.0</text>
		<text transform="matrix(0.987 0 0 1 216.6157 634.9072)" class="st3 st4">2.5</text>
		<text transform="matrix(0.987 0 0 1 337.8125 634.6143)" class="st3 st4">5.0</text>
		<text transform="matrix(0.987 0 0 1 457.2725 634.6152)" class="st3 st4">7.5</text>
		<text transform="matrix(0.987 0 0 1 570.3438 635.4805)" class="st3 st4">10.0</text>
	</g>
	<g id="ai2html-settings">
		<rect x="-625" y="-175" class="st5" width="400" height="456"/>
		<text transform="matrix(1 0 0 1 -625 -164.3501)" style="font-family:'ArialMT'; font-size:15px;">ai2html-settings</text>
		<text transform="matrix(1 0 0 1 -625 -145.3501)" style="font-family:'ArialMT'; font-size:15px;">settings_version: 0.120.0</text>
		<text transform="matrix(1 0 0 1 -625 -126.3501)" style="font-family:'ArialMT'; font-size:15px;">image_format: auto</text>
		<text transform="matrix(1 0 0 1 -625 -107.3501)" style="font-family:'ArialMT'; font-size:15px;">responsiveness: fixed</text>
		<text transform="matrix(1 0 0 1 -625 -88.3501)" style="font-family:'ArialMT'; font-size:15px;">include_resizer_script: false</text>
		<text transform="matrix(1 0 0 1 -625 -69.3501)" style="font-family:'ArialMT'; font-size:15px;">use_lazy_loader: false</text>
		<text transform="matrix(1 0 0 1 -625 -50.3501)" style="font-family:'ArialMT'; font-size:15px;">output: one-file</text>
		<text transform="matrix(1 0 0 1 -625 -31.3501)" style="font-family:'ArialMT'; font-size:15px;">html_output_path: ai2html-output/</text>
		<text transform="matrix(1 0 0 1 -625 -12.3501)" style="font-family:'ArialMT'; font-size:15px;">image_output_path: ai2html-output/</text>
		<text transform="matrix(1 0 0 1 -625 6.6499)" style="font-family:'ArialMT'; font-size:15px;">image_source_path: </text>
		<text transform="matrix(1 0 0 1 -625 25.6499)" style="font-family:'ArialMT'; font-size:15px;">local_preview_template: </text>
		<text transform="matrix(1 0 0 1 -625 44.6499)" style="font-family:'ArialMT'; font-size:15px;">png_number_of_colors: 128</text>
		<text transform="matrix(1 0 0 1 -625 63.6499)" style="font-family:'ArialMT'; font-size:15px;">jpg_quality: 60</text>
		<text transform="matrix(1 0 0 1 -625 82.6499)" style="font-family:'ArialMT'; font-size:15px;">headline: </text>
		<text transform="matrix(1 0 0 1 -625 101.6499)" style="font-family:'ArialMT'; font-size:15px;">leadin: </text>
		<text transform="matrix(1 0 0 1 -625 120.6499)" style="font-family:'ArialMT'; font-size:15px;">notes: </text>
		<text transform="matrix(1 0 0 1 -625 139.6499)" style="font-family:'ArialMT'; font-size:15px;">sources: </text>
		<text transform="matrix(1 0 0 1 -625 158.6499)" style="font-family:'ArialMT'; font-size:15px;">credit: </text>
	</g>
</g>
<g id="ai2html-settings_00000017491817703579935300000005076762835250879421_">
	<rect x="-450" class="st5" width="400" height="456"/>
	<text id="ai2html-settings_00000102512154396346553460000008811503833742658970_" transform="matrix(1 0 0 1 -450 10.6499)"><tspan x="0" y="0" style="font-family:'MyriadPro-Regular'; font-size:15px;">ai2html-settings</tspan><tspan x="0" y="19" style="font-family:'MyriadPro-Regular'; font-size:15px;">settings_version: 0.120.0</tspan><tspan x="0" y="38" style="font-family:'MyriadPro-Regular'; font-size:15px;">image_format: auto</tspan><tspan x="0" y="57" style="font-family:'MyriadPro-Regular'; font-size:15px;">responsiveness: fixed</tspan><tspan x="0" y="76" style="font-family:'MyriadPro-Regular'; font-size:15px;">include_resizer_script: false</tspan><tspan x="0" y="95" style="font-family:'MyriadPro-Regular'; font-size:15px;">use_lazy_loader: false</tspan><tspan x="0" y="114" style="font-family:'MyriadPro-Regular'; font-size:15px;">output: one-file</tspan><tspan x="0" y="133" style="font-family:'MyriadPro-Regular'; font-size:15px;">html_output_path: ai2html-output/</tspan><tspan x="0" y="152" style="font-family:'MyriadPro-Regular'; font-size:15px;">image_output_path: ai2html-output/</tspan><tspan x="0" y="171" style="font-family:'MyriadPro-Regular'; font-size:15px;">image_source_path: </tspan><tspan x="0" y="190" style="font-family:'MyriadPro-Regular'; font-size:15px;">local_preview_template: </tspan><tspan x="0" y="209" style="font-family:'MyriadPro-Regular'; font-size:15px;">png_number_of_colors: 128</tspan><tspan x="0" y="228" style="font-family:'MyriadPro-Regular'; font-size:15px;">jpg_quality: 60</tspan><tspan x="0" y="247" style="font-family:'MyriadPro-Regular'; font-size:15px;">headline: </tspan><tspan x="0" y="266" style="font-family:'MyriadPro-Regular'; font-size:15px;">leadin: </tspan><tspan x="0" y="285" style="font-family:'MyriadPro-Regular'; font-size:15px;">notes: </tspan><tspan x="0" y="304" style="font-family:'MyriadPro-Regular'; font-size:15px;">sources: </tspan><tspan x="0" y="323" style="font-family:'MyriadPro-Regular'; font-size:15px;">credit: </tspan></text>
</g>
</svg>
